<svg aria-hidden="true" style="position: absolute; width: 0; height: 0; overflow: hidden;" version="1.1" xmlns="http://www.w3.org/2000/svg" xmlns:xlink="http://www.w3.org/1999/xlink">
<defs>

<symbol id="icon-bar-graph" viewBox="0 0 32 32">
<path d="M30.047 12.771h-5.626v17.354h-1.874v-13.267h-5.626v13.267h-1.872v-16.86h-5.626v16.86h-1.842v-9.348h-5.629v9.348h-1.952v1.875h32v-1.875h-1.953v-17.354zM5.703 22.652v1.875h-1.874v-1.875h1.874zM3.829 30.125v-3.723h1.874v3.723h-1.874zM13.172 15.14v1.875h-1.873v-1.875h1.873zM11.299 30.125v-11.235h1.873v11.235h-1.873zM20.67 18.733v1.875h-1.874v-1.875h1.874zM18.796 30.125v-7.642h1.874v7.642h-1.874zM28.17 14.646v1.875h-1.874v-1.875h1.874zM26.296 30.125v-11.729h1.874v11.729h-1.874z"></path>
<path d="M26.387 0v1.875h2.411l-8.64 8.64-7.157-7.158-12.995 12.995 1.327 1.326 11.668-11.669 7.158 7.158 9.964-9.966v2.42h1.877v-5.622h-5.613z"></path>
</symbol>

<symbol id="icon-alarm" viewBox="0 0 33 32">
<path d="M16.344 4.781c-2.267 0-4.483 0.658-6.367 1.891-1.863 1.227-3.315 2.941-4.192 4.962l-0.028 0.073c-0.552 1.267-0.873 2.743-0.873 4.294 0 0.774 0.080 1.53 0.232 2.26l-0.012-0.071c0.476 2.271 1.586 4.23 3.135 5.742l0.002 0.002c1.564 1.527 3.563 2.614 5.794 3.058l0.073 0.012c2.223 0.432 4.528 0.211 6.621-0.638 2.124-0.872 3.873-2.296 5.119-4.094l0.025-0.038c1.207-1.744 1.929-3.904 1.931-6.233v-0c-0.009-3.109-1.294-5.916-3.358-7.927l-0.002-0.002c-2.088-2.035-4.944-3.29-8.093-3.29-0.002 0-0.005 0-0.007 0h0zM25.878 16.438h1.021c-0.115 2.551-1.152 4.84-2.782 6.561l0.004-0.005-0.718-0.703c-0.081-0.080-0.192-0.129-0.314-0.129-0.001 0-0.002 0-0.003 0h0c-0.123 0-0.235 0.049-0.317 0.129l0-0c-0.080 0.079-0.129 0.188-0.13 0.309v0c0 0.001 0 0.001 0 0.002 0 0.12 0.050 0.229 0.13 0.307l0 0 0.719 0.703c-1.776 1.602-4.109 2.616-6.677 2.72l-0.021 0.001v-1.002c-0-0.121-0.050-0.23-0.131-0.309l-0-0c-0.081-0.080-0.193-0.129-0.316-0.129s-0.234 0.049-0.316 0.129l0-0c-0.081 0.078-0.131 0.188-0.131 0.309v1.001c-2.589-0.105-4.922-1.119-6.707-2.729l0.009 0.008 0.718-0.703c0.081-0.079 0.131-0.188 0.131-0.309v-0c0-0 0-0 0-0.001 0-0.121-0.050-0.23-0.13-0.308l-0-0c-0.081-0.080-0.192-0.129-0.314-0.129-0.001 0-0.001 0-0.002 0h0c-0.123 0-0.235 0.049-0.317 0.129l0-0-0.718 0.703c-1.626-1.716-2.663-4.005-2.778-6.534l-0.001-0.022h1.021c0 0 0 0 0.001 0 0.123 0 0.234-0.049 0.316-0.129l-0 0c0.080-0.079 0.13-0.188 0.13-0.309s-0.050-0.231-0.13-0.309l-0-0c-0.081-0.080-0.193-0.129-0.316-0.129h-1.021c0.116-2.551 1.152-4.84 2.782-6.56l-0.004 0.005 0.719 0.703c0.081 0.080 0.193 0.129 0.316 0.129s0.234-0.049 0.316-0.129l-0 0c0.081-0.079 0.131-0.188 0.131-0.31s-0.050-0.231-0.13-0.31l-0-0-0.718-0.703c1.776-1.601 4.108-2.615 6.676-2.719l0.021-0.001v1c0 0.121 0.050 0.231 0.13 0.31l0 0c0.081 0.080 0.193 0.129 0.316 0.129s0.235-0.049 0.316-0.129l-0 0c0.081-0.079 0.131-0.188 0.131-0.31v0-0.999c2.589 0.105 4.922 1.118 6.707 2.728l-0.009-0.008-0.718 0.703c-0.081 0.079-0.131 0.189-0.131 0.311 0 0.060 0.012 0.117 0.034 0.169l-0.001-0.003c0.046 0.109 0.132 0.193 0.239 0.236l0.003 0.001c0.050 0.021 0.109 0.033 0.17 0.033 0.123 0 0.235-0.049 0.317-0.128l-0 0 0.719-0.703c1.626 1.716 2.663 4.005 2.778 6.534l0.001 0.022h-1.022c-0 0-0 0-0.001 0-0.123 0-0.235 0.049-0.316 0.129l0-0c-0.080 0.079-0.13 0.188-0.13 0.309s0.050 0.231 0.13 0.309l0 0c0.081 0.079 0.192 0.128 0.315 0.128 0.001 0 0.001 0 0.002 0h-0z"></path>
<path d="M21.419 15.562h-2.821c-0.096-0.455-0.319-0.848-0.63-1.152l-0-0c-0.314-0.306-0.714-0.524-1.161-0.614l-0.015-0.002v-4.324c-0-0.121-0.051-0.231-0.131-0.31l-0-0c-0.081-0.079-0.193-0.128-0.316-0.128s-0.234 0.049-0.316 0.128l0-0c-0.081 0.078-0.131 0.188-0.131 0.309v4.325c-0.425 0.084-0.797 0.274-1.098 0.541l0.002-0.002c-0.309 0.274-0.536 0.624-0.657 1.014-0.063 0.195-0.099 0.42-0.099 0.654 0 0.194 0.025 0.383 0.072 0.562l-0.003-0.015c0.101 0.395 0.31 0.756 0.605 1.045s0.663 0.493 1.067 0.592 0.828 0.088 1.226-0.030c0.398-0.119 0.756-0.341 1.035-0.643s0.47-0.674 0.551-1.072h2.821c0 0 0 0 0.001 0 0.123 0 0.235-0.049 0.316-0.129l-0 0c0.080-0.079 0.13-0.188 0.13-0.309s-0.050-0.231-0.13-0.309l-0-0c-0.081-0.080-0.193-0.129-0.316-0.129-0 0-0 0-0.001 0h0zM16.344 17.375c-0 0-0 0-0 0-0.29 0-0.56-0.087-0.785-0.235l0.005 0.003c-0.229-0.15-0.407-0.361-0.515-0.609l-0.003-0.009c-0.068-0.156-0.108-0.337-0.108-0.528 0-0.381 0.158-0.725 0.412-0.97l0-0c0.257-0.249 0.608-0.402 0.995-0.402 0.193 0 0.377 0.038 0.545 0.107l-0.010-0.003c0.257 0.104 0.476 0.28 0.631 0.507 0.147 0.214 0.236 0.478 0.236 0.764 0 0.381-0.157 0.726-0.411 0.972l-0 0c-0.256 0.249-0.606 0.403-0.992 0.403-0 0-0.001 0-0.001 0h0z"></path>
<path d="M31.967 2.237l-1.564-1.531c-0.446-0.434-1.056-0.701-1.728-0.701-0.001 0-0.003 0-0.004 0h0c-0.649 0-1.273 0.253-1.732 0.701l-1.226 1.2c-0.080 0.079-0.13 0.188-0.131 0.309v0c0 0 0 0 0 0.001 0 0.121 0.050 0.231 0.131 0.309l0 0 1.159 1.135-1.718 1.683c-2.392-1.908-5.459-3.062-8.795-3.062-0.005 0-0.011 0-0.016 0h0.001c-3.209 0-6.32 1.081-8.81 3.062l-1.719-1.683 1.159-1.136c0.080-0.079 0.13-0.188 0.131-0.309v-0c0-0 0-0 0-0.001 0-0.121-0.050-0.231-0.131-0.309l-0-0-1.226-1.2c-0.446-0.434-1.056-0.701-1.728-0.701-0.002 0-0.003 0-0.005 0h0c-0.649 0-1.272 0.252-1.731 0.701l-1.564 1.532c-0.442 0.431-0.716 1.031-0.717 1.696v0c0 0.636 0.258 1.245 0.717 1.695l1.226 1.2c0.081 0.080 0.192 0.129 0.314 0.129 0.001 0 0.001 0 0.002 0h-0c0.123-0 0.235-0.049 0.317-0.129l-0 0 1.159-1.135 1.72 1.681c-1.944 2.322-3.125 5.342-3.125 8.637 0 0.199 0.004 0.397 0.013 0.593l-0.001-0.028c0.161 3.489 1.618 6.609 3.897 8.915l-0.001-0.001-2.202 4.839c-0.067 0.142-0.105 0.309-0.105 0.484 0 0.241 0.073 0.464 0.198 0.65l-0.003-0.004c0.111 0.166 0.261 0.303 0.439 0.397s0.376 0.144 0.579 0.144h1.118c0.234 0 0.464-0.067 0.66-0.192s0.353-0.303 0.448-0.512l1.643-3.609c2.089 1.277 4.617 2.032 7.322 2.032 0.003 0 0.006 0 0.009 0h-0c2.589 0 5.126-0.704 7.331-2.032l1.642 3.609c0.095 0.209 0.251 0.387 0.448 0.512s0.425 0.192 0.659 0.192h1.118c0.202 0 0.401-0.049 0.579-0.144s0.329-0.231 0.439-0.398c0.122-0.182 0.195-0.406 0.195-0.647 0-0.175-0.038-0.341-0.107-0.49l0.003 0.007-2.202-4.839c2.278-2.304 3.735-5.424 3.895-8.883l0.001-0.030c0.008-0.169 0.012-0.366 0.012-0.565 0-3.296-1.181-6.315-3.143-8.659l0.017 0.021 1.719-1.684 1.159 1.136c0.081 0.079 0.191 0.128 0.313 0.128 0.001 0 0.002 0 0.004 0h-0c0.123-0 0.234-0.049 0.316-0.128l-0 0 1.226-1.2c0.458-0.45 0.717-1.059 0.717-1.695s-0.258-1.245-0.717-1.695zM2.262 5.9l-0.908-0.891c-0.28-0.274-0.454-0.655-0.455-1.077v-0c0-0.404 0.164-0.791 0.455-1.077l1.563-1.53c0.291-0.285 0.688-0.445 1.1-0.445s0.808 0.16 1.099 0.445l0.911 0.89-3.765 3.684zM4.369 5.075l0.813-0.796 1.673 1.638c-0.282 0.254-0.553 0.519-0.813 0.796l-1.673-1.638zM6.556 30.94c-0.053 0.11-0.164 0.184-0.291 0.185h-1.119c-0.111-0-0.209-0.056-0.267-0.141l-0.001-0.001c-0.032-0.048-0.051-0.107-0.051-0.17 0-0.046 0.010-0.090 0.029-0.13l-0.001 0.002 2.067-4.541c0.424 0.376 0.872 0.727 1.339 1.050l-1.705 3.745zM27.811 30.983c-0.057 0.086-0.153 0.143-0.263 0.143-0.002 0-0.004-0-0.006-0h-1.118c-0.001 0-0.003 0-0.005 0-0.127 0-0.236-0.075-0.286-0.183l-0.001-0.002-1.704-3.745c0.468-0.323 0.915-0.675 1.34-1.051l2.067 4.541c0.017 0.037 0.027 0.080 0.027 0.126 0 0.064-0.020 0.124-0.054 0.173l0.001-0.001h0.001zM16.345 28.844c-2.595 0-5.132-0.753-7.289-2.165-2.133-1.404-3.796-3.366-4.801-5.681l-0.032-0.083c-0.631-1.45-0.998-3.139-0.998-4.914 0-0.887 0.092-1.753 0.266-2.588l-0.014 0.082c0.544-2.599 1.814-4.843 3.587-6.574l0.002-0.002c1.79-1.748 4.080-2.993 6.634-3.501l0.084-0.014c0.769-0.157 1.654-0.247 2.559-0.247 1.81 0 3.536 0.359 5.11 1.010l-0.089-0.033c2.432 0.999 4.434 2.628 5.86 4.687l0.028 0.043c1.382 1.996 2.209 4.469 2.211 7.135v0.001c-0.004 3.405-1.387 6.67-3.847 9.078s-5.795 3.762-9.273 3.767zM26.646 6.712c-0.259-0.277-0.53-0.542-0.813-0.796l1.674-1.639 0.813 0.796-1.673 1.638zM31.337 5.008l-0.91 0.891-3.765-3.684 0.911-0.89c0.292-0.285 0.688-0.445 1.1-0.445s0.808 0.16 1.1 0.445l1.562 1.531c0.291 0.285 0.455 0.672 0.455 1.076s-0.163 0.791-0.455 1.078h0.002z"></path>
</symbol>

</defs>
</svg>
